<svg width="31" height="23" viewBox="0 0 31 23" fill="none" xmlns="http://www.w3.org/2000/svg">
<path id="Vector" d="M3.26881 22.7422C2.50215 22.7422 1.86215 22.5002 1.34882 22.0162C0.834371 21.5311 0.577148 20.9272 0.577148 20.2043V3.28004C0.577148 2.55719 0.834371 1.95376 1.34882 1.46976C1.86215 0.984711 2.50215 0.742188 3.26881 0.742188H27.8855C28.6521 0.742188 29.2921 0.984711 29.8055 1.46976C30.3199 1.95376 30.5771 2.55719 30.5771 3.28004V20.2043C30.5771 20.9272 30.3205 21.5306 29.8071 22.0146C29.2927 22.4997 28.6521 22.7422 27.8855 22.7422H3.26881ZM3.26881 21.1708H27.8855C28.141 21.1708 28.376 21.0702 28.5905 20.869C28.8038 20.6669 28.9105 20.4453 28.9105 20.2043V5.45647H2.24382V20.2043C2.24382 20.4453 2.35048 20.6669 2.56381 20.869C2.77826 21.0702 3.01326 21.1708 3.26881 21.1708Z" fill="white"/>
</svg>
