<svg width="29" height="29" viewBox="0 0 29 29" fill="none" xmlns="http://www.w3.org/2000/svg">
<g id="Group">
<path id="Vector" opacity="0.16" d="M25.0377 13.2698C25.0377 16.3935 23.7969 19.3891 21.5881 21.5979C19.3794 23.8066 16.3837 25.0475 13.2601 25.0475C10.1364 25.0475 7.14075 23.8066 4.93201 21.5979C2.72328 19.3891 1.48242 16.3935 1.48242 13.2698C1.48242 10.1462 2.72328 7.15052 4.93201 4.94178C7.14075 2.73304 10.1364 1.49219 13.2601 1.49219C16.3837 1.49219 19.3794 2.73304 21.5881 4.94178C23.7969 7.15052 25.0377 10.1462 25.0377 13.2698Z" fill="white"/>
<path id="Vector_2" d="M27.9824 27.9922L21.5886 21.5984M21.5886 21.5984C22.6823 20.5047 23.5499 19.2063 24.1418 17.7774C24.7337 16.3484 25.0383 14.8168 25.0383 13.2701C25.0383 11.7234 24.7337 10.1919 24.1418 8.76291C23.5499 7.33394 22.6823 6.03555 21.5886 4.94187C20.495 3.84818 19.1966 2.98063 17.7676 2.38873C16.3386 1.79683 14.8071 1.49219 13.2604 1.49219C11.7137 1.49219 10.1821 1.79683 8.75314 2.38873C7.32418 2.98063 6.02579 3.84818 4.9321 4.94187C2.72331 7.15066 1.48242 10.1464 1.48242 13.2701C1.48242 16.3938 2.72331 19.3896 4.9321 21.5984C7.1409 23.8072 10.1367 25.0481 13.2604 25.0481C16.3841 25.0481 19.3798 23.8072 21.5886 21.5984Z" stroke="white" stroke-width="2" stroke-linecap="round" stroke-linejoin="round"/>
</g>
</svg>
