<svg width="55" height="55" viewBox="0 0 55 55" fill="none" xmlns="http://www.w3.org/2000/svg">
<g id="pepicons-pencil:no-entry">
<g id="Group">
<path id="Vector" fill-rule="evenodd" clip-rule="evenodd" d="M44.7043 27.2422C44.7043 22.5876 42.8553 18.1237 39.564 14.8325C36.2728 11.5412 31.8088 9.69219 27.1543 9.69219C22.4997 9.69219 18.0358 11.5412 14.7446 14.8325C11.4533 18.1237 9.6043 22.5876 9.6043 27.2422C9.6043 31.8967 11.4533 36.3606 14.7446 39.6519C18.0358 42.9432 22.4997 44.7922 27.1543 44.7922C31.8088 44.7922 36.2728 42.9432 39.564 39.6519C42.8553 36.3607 44.7043 31.8967 44.7043 27.2422ZM27.1543 6.99219C32.5249 6.99219 37.6756 9.12566 41.4732 12.9233C45.2708 16.7209 47.4043 21.8716 47.4043 27.2422C47.4043 32.6128 45.2708 37.7635 41.4732 41.5611C37.6756 45.3587 32.5249 47.4922 27.1543 47.4922C21.7837 47.4922 16.633 45.3587 12.8354 41.5611C9.03777 37.7635 6.9043 32.6128 6.9043 27.2422C6.9043 21.8716 9.03777 16.7209 12.8354 12.9233C16.633 9.12566 21.7837 6.99219 27.1543 6.99219Z" fill="white"/>
<path id="Vector_2" fill-rule="evenodd" clip-rule="evenodd" d="M41.4719 41.5628C41.2188 41.8158 40.8754 41.958 40.5175 41.958C40.1595 41.958 39.8162 41.8158 39.563 41.5628L12.833 14.8328C12.7041 14.7082 12.6012 14.5593 12.5305 14.3946C12.4597 14.2298 12.4225 14.0527 12.4209 13.8734C12.4194 13.6942 12.4535 13.5164 12.5214 13.3505C12.5893 13.1846 12.6895 13.0339 12.8163 12.9071C12.943 12.7804 13.0938 12.6801 13.2597 12.6122C13.4256 12.5444 13.6034 12.5102 13.7826 12.5118C13.9619 12.5133 14.139 12.5506 14.3037 12.6213C14.4684 12.6921 14.6174 12.7949 14.7419 12.9239L41.4719 39.6539C41.725 39.907 41.8672 40.2503 41.8672 40.6083C41.8672 40.9663 41.725 41.3096 41.4719 41.5628Z" fill="white"/>
</g>
</g>
</svg>
