<svg width="20" height="20" viewBox="0 0 20 20" fill="none" xmlns="http://www.w3.org/2000/svg">
<g id="SVG" clip-path="url(#clip0_256_4907)">
<g id="Clip path group">
<mask id="mask0_256_4907" style="mask-type:luminance" maskUnits="userSpaceOnUse" x="-1" y="-2" width="24" height="23">
<g id="__lottie_element_946">
<path id="Vector" d="M22.2033 11.4655L13.5029 -1.7832L-0.849887 7.64222L7.8505 20.891L22.2033 11.4655Z" fill="white"/>
</g>
</mask>
<g mask="url(#mask0_256_4907)">
<g id="Group">
<g id="Group_2">
<g id="Group_3">
<path id="Vector_2" d="M16.6476 10.9837C16.7136 10.9516 16.7698 10.9024 16.8105 10.8414C16.8511 10.7804 16.8748 10.7096 16.879 10.6363C16.8832 10.5631 16.8678 10.4901 16.8345 10.4248C16.8011 10.3594 16.7509 10.3042 16.6891 10.2647C13.7448 8.46537 10.8005 6.66602 7.85619 4.86667C7.78535 4.82147 7.70242 4.79896 7.61842 4.80218C7.53444 4.80539 7.45346 4.83415 7.38626 4.88462C7.31907 4.9351 7.2689 5.00487 7.24242 5.08464C7.21595 5.1644 7.21447 5.25033 7.23815 5.33096C7.69717 6.89423 8.15619 8.45749 8.61522 10.0208C8.64198 10.1121 8.63635 10.2099 8.59926 10.2975C7.96389 11.7977 7.32852 13.2979 6.69316 14.798C6.66035 14.8755 6.65198 14.961 6.6691 15.0433C6.68622 15.1255 6.72803 15.2006 6.78899 15.2585C6.84994 15.3163 6.9271 15.3542 7.01014 15.3671C7.09318 15.3799 7.1782 15.3671 7.25375 15.3303C10.385 13.8814 13.5163 12.4326 16.6476 10.9837Z" stroke="white" stroke-width="1.18871" stroke-linecap="round" stroke-linejoin="round"/>
</g>
</g>
<g id="Group_4">
<g id="Group_5">
<path id="Vector_3" d="M8.63107 10.1586C9.88343 10.2308 11.1358 10.303 12.3882 10.3752" stroke="white" stroke-width="1.18871" stroke-linecap="round" stroke-linejoin="round"/>
</g>
</g>
</g>
</g>
</g>
</g>
<defs>
<clipPath id="clip0_256_4907">
<rect width="13.5011" height="13.5011" fill="white" transform="translate(11.937 0.652344) rotate(56.7073)"/>
</clipPath>
</defs>
</svg>
